<svg xmlns="http://www.w3.org/2000/svg" width="1500" height="1500" viewBox="0 0 1500 1500">
  <defs>
    <style>
      .cls-1 {
        fill-rule: evenodd;
      }
    </style>
  </defs>
  <path id="Слой_1" data-name="Слой 1" class="cls-1" d="M-30.605-26.445H1529.61V1525.44H-30.605V-26.445ZM700,410c-1.056-6.47,38.78,21.892,48,38,8.272-5.9,15.746-9.112,28-10-2.681-21.171-16.423-80.888-16-83,1.472-7.344,70.8,25.985,104,83,59.692,15.811,172.98,178.189,214,290,16.6,45.253,29.71,136.675,13,192-34.16,113.14-123.144,152.29-224.014,146.63C732.192,1059.06,661.992,969.517,554,995c-58.779,13.87-65.549,80.73-62,118-125.511-103.88-117.522-263.467-18-340,94.143-72.4,239.768-42.9,313,45,84.963,101.977,149.254,122,177,122,13.17,5.99-73.232-28.683-88-99-6.248-29.748,4.647-68.637,8-126,3.19-54.568-4.153-110.56-46-119-51.966-10.481-87.947,24.037-142,34-18.9,3.484-28.1,2.259-43,1,0.115,3.99,13.379,26.625,79,19-46.181,23.953-117.444,2.24-151-47,23.348-.1,77.972-7.831,92-36,15.66-31.446,20.8-69.726,38-86-1.173-4.986-3.463-28.6-5-40C704.415,429.246,701.056,416.47,700,410Z"/>
</svg>
