<svg xmlns="http://www.w3.org/2000/svg" width="1125" height="1119" viewBox="0 0 1125 1119">
  <defs>
    <style>
      .cls-1 {
        fill: #ffe5d6;
        fill-rule: evenodd;
      }
    </style>
  </defs>
  <path id="Слой_2" data-name="Слой 2" class="cls-1" d="M0,0H1125V1119H0V0ZM523,234c-1.051-6.448,26.295,13.947,36,32,7.575-8.7,27.746-12.112,40-13-2.681-21.171-8.423-63.888-8-66,1.472-7.344,45.8,10.985,79,68,59.691,15.811,163.975,171.189,205,283,16.6,45.253,24.705,129.675,8,185C848.836,836.143,757.869,862.663,657,857c-134.795-7.568-174.64-90.722-301-61-7.788,1.832,17.357-16.08,15-17-4.626-1.8-35.94,6.314-52,26-0.777-21.24,24.2-61.17,26-73-22.779,7.436-60.774,40.934-70,84-5.68-19.061-14.627-91.8-11-119-13.988,12.951-29.977,53.6-30,78-19.587-66.677,2.054-138.67,61-184,94.143-72.4,228.768-36.9,302,51,84.963,101.977,154.439,123.365,214,117,13.17,5.99-95.232-37.683-110-108-6.248-29.748,4.647-67.637,8-125,3.19-54.568-5.5-121.889-53-132-51.851-11.038-83.947,36.037-138,46-18.9,3.484-35.1,4.259-50,3-0.22,4.073,7.584,6.333,28,8-34.418,8.649-59.558-4.77-86-31,23.348-.1,70.972-9.831,85-38,15.66-31.446,21.8-71.726,39-88-1.173-4.986-5.463-26.6-7-38C525.415,244.246,524.054,240.47,523,234Z"/>
</svg>
