<svg xmlns="http://www.w3.org/2000/svg" width="1125" height="1119" viewBox="0 0 1125 1119">
  <defs>
    <style>
      .cls-1 {
        fill: #f1d700;
        fill-rule: evenodd;
      }
    </style>
  </defs>
  <path id="Слой_3" data-name="Слой 3" class="cls-1" d="M0,1119V0H1125V1119H0ZM841,538l15.982-18.379L842,480ZM255.231,790.1l0.662-114.568C244.356,711.711,240.726,754.833,255.231,790.1ZM332.2,579.86c-19.63,12.578-32.763,24.4-43.2,37.14,0.153,9.669-.721,56.8,1,109,1.093,33.142,3.688,57.255,6.186,73.7,11.431-12.106,25.74-21.38,40.606-28.033C337.216,707.955,333.157,603.459,332.2,579.86ZM354,568.95V594l29.567-34.943A195.807,195.807,0,0,0,354,568.95ZM355,611s4.546,112.7,9.63,151.276C479.757,739.2,540.545,849.642,667,847c16.411-.343,77.972-7.669,130-38,1.16-9.958,2.554-21.189,4-35-66.117,10.8-146.231-32.2-201-118-41.528-65.054-96.66-95.678-151.134-101.515L385,574Zm41.616-54.715L393,563l35.068-9.564A188.69,188.69,0,0,0,396.616,556.285ZM664,259c-29.449-50.024-63-59-63-59s5.319,36.829,8,58c-12.254.888-41.728,13.1-50,19-9.121-9.931-27-25-27-25s3.316,11.593,10,40c-17.2,16.274-26.34,63.554-42,95-14.028,28.169-48.643,40.089-68,41,12.621,10.882,37.754,13.711,76,4,53.273-13.526,93.709-60.714,146-52,75.707,12.617,71.674,94.838,64,143-9.042,56.745-19.248,101.252-13,131,8.937,42.551,62.4,73.874,100.323,90.653,1.635-17.63,3.023-35.206,3.677-49.653,1.9-42.007,4.2-208.793,5-269C765.535,344.052,717.8,281.542,664,259ZM863.221,535.242C857.105,540.135,842,560,842,560s-0.537,166.559,12,195C892.785,682.225,877.9,598.853,863.221,535.242Z"/>
</svg>
