<svg xmlns="http://www.w3.org/2000/svg" width="1125" height="1119" viewBox="0 0 1125 1119">
  <defs>
    <style>
      .cls-1 {
        fill: #cf9c00;
        fill-rule: evenodd;
      }
    </style>
  </defs>
  <path id="Слой_4" data-name="Слой 4" class="cls-1" d="M0,1119V0H1125V1119H0ZM856.233,572.394C813.277,594.178,792,619,792,619s-2.382,74.216.577,115.7A127.807,127.807,0,0,0,820,742C830.386,730.005,872.929,679.911,856.233,572.394ZM794,463l21.347-16.706c-6.106-12.524-12.657-24.7-19.515-36.435ZM731,333c-0.8,7.445-6,22-6,22s7.268,16.731,11,22,24,24,24,24l-2.75-48.591c-8.434-10.948-16.971-21.1-25.443-30.3C731.658,325.189,731.407,329.234,731,333Zm-50.45,37.817L689,368l-10.987-4.395A18.23,18.23,0,0,1,680.55,370.817Zm-0.195,4.411a14.723,14.723,0,0,1-.53,1.937c19.016,6.506,44.472,26.025,54.622,61.422,5.111,11.036,12.3,27.026,14.553,34.413,3.629,11.876,5,28,5,28l25,15,1-79s-5.722-11-12-18a295.052,295.052,0,0,0-23-23c-6.52-5.554-15-16-15-16s-28.827-9-33-9C693.864,371,684.709,373.824,680.355,375.228Zm57.513,113.821L749,497s-2.2-15.918-5-24c-1.177-3.392-3.48-9.045-5.756-14.464A141.013,141.013,0,0,1,737.868,489.049ZM765,376l4.875-6.5q-3.234-4.573-6.5-8.988Zm1,8c-1.006,3.622,1,24,1,24l14,13,0.888-33.76q-4.529-6.971-9.167-13.659C770.656,376.183,766.735,381.354,766,384Zm12,146c-0.749-3.213-31.449-26.551-41.114-33.833A202.927,202.927,0,0,1,730,525c-17.205,54.824-26.758,103.379-14,134,13.225,31.743,33.835,52.175,54.737,64.936C775.45,679.3,778.855,533.668,778,530ZM474.75,764.168c46.527,27.54,93.4,66.288,178.25,67.832,72.493,1.32,123.956-34.955,129.78-40.133C697.361,799.31,642.2,727.253,579,643q-6.107-8.14-12.529-15.554A14.589,14.589,0,0,1,557,624c-0.877,3.332-7.9,8.52-14.346,4.173L535,632c-4.744,2.372-13,8-13,8s-1.669,9-6,16-25,28-25,28,15.935,0.325,20,0c3.023-.242,10.394-3.44,13.976-5.065A14.566,14.566,0,0,1,525,676c-12.652-5.06-4.856-19.783,4-17-1.518-8.1,8.457-10.06,12-5,11.387-6.578,18.326,5.422,12,12,11.893,9.867,2.1,22.325-6,16-5,14.579-17.7,10.17-21.186.677-3.732,1.911-9.789,4.837-12.814,5.323-4.553.732-26,0-26,0l-15,12Zm65.321-138.329A21.587,21.587,0,0,1,537,621a13.158,13.158,0,0,1-11.654,2.25L524,632a30.372,30.372,0,0,0,8-2A56.794,56.794,0,0,0,540.071,625.839Zm-46.612,21.615A34.221,34.221,0,0,0,492,657a35.185,35.185,0,0,0,3,13s19.421-15.133,22-26c-0.391-.483-0.788-0.975-1.175-1.457-1.177,3-4.838,4.484-9.825,3.457C507.192,651.242,496.409,654.68,493.459,647.454ZM471,692s6.5-4.951,21-19c-1.36-1.813-3.3-9.734-3-16a58.493,58.493,0,0,1,1.713-10.254c-8.77,1.37-18.659-13.278-3.713-17.746-5.567-13.409,13.7-22.457,18-5,4.808-1.771,11.024,3.169,9,10a15.627,15.627,0,0,1,1.585,3.068L518,639s2.5-4.325,3.7-17.144c-7.641-3.976-12.564-13.738-4.7-23.856-5.29,1.84-11.16-2.33-13-9-4.063,3.984-10.083,5-15.647,3.63C482.452,603.876,467,622,467,622Zm-4-79s12.493-12.738,18.065-21.485c-8.467-3.712-14.5-13.295-8.125-26.48-0.986-.312-1.972-0.622-2.962-0.914A6.159,6.159,0,0,1,470,567c2.446,2.069,3.348,13.324-4.906,16.452ZM276,799c-1.358-14.259,5.741-26.412,18.4-36.089,4.046-43.236,6.81-124.833,7.457-145.208C270.064,649.983,228.65,713.828,276,799ZM382,640c-3.478,1.77-7.561,1.089-12-1s-7.016-8.831-5-16c-14.561.672-16.568-10.367-15-20s7.624-14.656,13-16a13.049,13.049,0,0,1-8.047-8.748A229.72,229.72,0,0,0,318,603l-0.436.358c-3.059,50.974-2.812,124.146-2.635,147.886,18.242-7.81,41.3-12.61,65.677-13.96C382.133,719.359,385.762,669.71,382,640Zm18.794,97.336c22.313,1.745,41.654,9.2,60.464,19.217C462.029,722.9,461,661,461,661l-9-11s-44.416-4.3-47-5a20.771,20.771,0,0,1-5.027-2.942C399.94,660.483,399.967,703.456,400.794,737.336Zm18.357-138.308c-0.611,2.289-2.746,5.06-6.678,6.508L422,609Zm-3.48,12.671A13.058,13.058,0,0,1,416,625c-5.056,9.793-16,8-16,8s-0.008,1.572-.016,4.381c2.426,1.881,5.656,4.248,7.016,4.619,2.3,0.628,41,2,41,2l-26-30Zm28.307-11c-3.591-.73-7.2-3.338-9.978-8.7-2.446,6.521-6.782,7.567-10.379,6.962,0.91,4.28,2.583,11.915,3.379,14.038,1.125,3,13,16,13,16s4.719-11.409,5-19A30.146,30.146,0,0,0,443.978,600.7ZM449,611c-0.281,8.528-4,23-4,23l15,16s0.419-47.061-1.6-65.827c-0.455-.043-0.921-0.1-1.4-0.173,4.551,7.045-1.665,15.824-9.389,16.82A30.084,30.084,0,0,1,449,611ZM681,317c0.3,19.584-30.109,14.283-28-5-28.923,3.917-19.763-27.3-5-27-8.213-13.916,2.887-18.222,8.764-19.494-23.312-36.213-30.9-41-42.764-47.506-1.888-1.035,2.319,26.829,5,48-76.052,11.925-82.078,48.077-108,117-11.765,31.282-35.652,44.568-59,49,18.234,4.04,41.127-1.514,60-8,40.9-14.057,72.969-42.325,115.529-50.1-0.41-4.2.462-9.185,6.471-11.9-8.139-17.591,12.247-34.8,28-18,5.952-15.871,34.879,2.351,18.381,15.7,4.645,1.783,12.059,4.558,17.619,6.3,8.708,2.721,28,7,28,7l-21-54-4.29-1.839C697.131,324.162,687.29,325.387,681,317Zm21.066-6.107a14.463,14.463,0,0,1-.286,3.187L705,315Zm12.368-6.463c-3.986,2.46-9.118,4.115-13.434.57,0.012,0.036.02,0.071,0.032,0.107A49.759,49.759,0,0,1,707,314c4.226,7.848,15,34,15,34s5.2-13.158,6-20c0.406-3.455.657-6.732,0.806-9.134C723.975,313.734,719.173,308.9,714.434,304.43ZM818.042,451.92L794,475l-3,129s38.612-26.023,64.308-37.267c-1.415-8.251-3.163-16.818-5.308-25.733C842.661,510.494,831.512,480.391,818.042,451.92Z"/>
</svg>
