<svg xmlns="http://www.w3.org/2000/svg" width="1125" height="1119" viewBox="0 0 1125 1119">
  <defs>
    <style>
      .cls-1 {
        fill: #e14a00;
        fill-rule: evenodd;
      }
    </style>
  </defs>
  <path id="Слой_5" data-name="Слой 5" class="cls-1" d="M0,1119V0H1125V1119H0ZM422,580c-99.174,3.7-137.756,73.292-142,179,12.076-12.592,27.185-21.666,43.733-27.857,0.532-7.834.97-20.036,1.162-25.847-10.236,5.057-16.574-10.43-4.895-33.3-1.049-2.886-.321-13.45,6-14,6.034-.525,7.492,8.949,5,18,4.741,0.384,11.409,31.221-2.955,28.249,0.151,4.038.659,16.981,1.286,24.928,28.029-9.238,59.547-10.676,87.258-7.232,0.256-3.721.353-8.179,0.389-10.774-6.661.836-7.625-7.583-2.978-26.171-0.542-3.9-.646-11.336,4-12,3.794-.542,4.108,5.049,4,7,1.657,1.45,11.218,31.556-2,31.229,0.009,2.643.07,7.195,0.351,11.215,18.55,2.634,35.2,7.447,47.653,13.556,28.442,13.953,50.065,28.022,71.8,39.677,0.512-3.73.743-7.773,0.983-10.122-7.877,3-7.837-11.014-3.785-18.555-0.472-4.606.693-10.409,4-11s3.646,5.63,4,10c1.705,3.979,6.532,20.626-1.953,19.237,0.1,2.659.367,9,.666,12.508,5.844,3.047,11.726,5.908,17.779,8.537,0.627-8.321.567-28.054,0.526-34.892-11.861,3.167-17.682-5.656-8.018-48.39,2.659-11.757.8-20.1,9-23,6.149-2.179,9.548,16.1,11,23,1.519,7.218,14.349,55.1-6.856,47.45,0.456,7.621,1.917,31,3.184,39.437A196.256,196.256,0,0,0,612.3,800.853c0.214-5.046-.05-13.926-0.2-18.287-11.374,2.587-8-15.5-5.1-25.566,1.455-5.043.313-13.449,6-15,4.752-1.3,3.777,9.33,6,16,2.367,7.1,7.112,27.072-3.882,24.338,0.234,4.483.789,14.28,1.4,19.1,20.967,2.7,45.631,2.861,76.48-.437C561.35,738.722,588.8,573.77,422,580Zm408-65c-9.53-46.129-68.025-133.977-122-201-35.348-43.893-85.53-39.027-119-27-41.106,14.771-56.321,67.176-62,88s-18.88,38.984-39,50c65.715-3.275,104.955-91.361,206-56,56.407,19.74,79.927,66.7,59,140-9.468,33.164-32.445,81.367-24,133a93.888,93.888,0,0,0,25.409,49.869c0.422-8.14.542-21.82,0.577-29.05C728.463,668.92,745.612,630.5,748,613c0.758-5.559-.822-19.953,9-21,11.792-1.257,9.008,16.963,10,21,2.035,8.279,18.128,54.12-7.017,49.444,0,8.064.112,25.22,1.1,35.451A69.646,69.646,0,0,0,790,712C808.449,698.538,853.8,630.186,830,515Z"/>
</svg>
